<svg width="98" height="30" viewBox="0 0 98 30" fill="none" xmlns="http://www.w3.org/2000/svg">
<path d="M13.1955 30C11.4243 30 9.84499 29.6015 8.45754 28.8045C7.07009 28.0074 5.97784 26.9152 5.1808 25.5277V29.5572H0V0.00012207H5.93356V10.4281C6.76013 9.04069 7.83762 7.94844 9.16603 7.15139C10.524 6.35435 12.1033 5.95582 13.904 5.95582C15.9114 5.95582 17.6679 6.51671 19.1734 7.63848C20.7084 8.73073 21.904 10.192 22.7601 12.0222C23.6162 13.8525 24.0442 15.8599 24.0442 18.0444C24.0442 20.2879 23.5719 22.31 22.6272 24.1108C21.6826 25.9115 20.3837 27.3432 18.7306 28.4059C17.107 29.4687 15.262 30 13.1955 30ZM11.5572 24.9521C12.8265 24.9521 13.9335 24.6421 14.8782 24.0222C15.8524 23.4023 16.6051 22.5757 17.1365 21.5425C17.6974 20.4798 17.9778 19.3285 17.9778 18.0886C17.9778 16.8193 17.7121 15.6532 17.1808 14.5905C16.6789 13.4982 15.9704 12.6274 15.0553 11.978C14.1402 11.3285 13.0922 11.0038 11.9114 11.0038C10.6125 11.0038 9.41695 11.4466 8.3247 12.3322C7.26197 13.1883 6.46493 14.251 5.93356 15.5204V21.0554C6.31733 22.2067 7.07009 23.1514 8.19186 23.8894C9.31363 24.5978 10.4354 24.9521 11.5572 24.9521Z" fill="#02274F"/>
<path d="M23.524 29.5571C23.524 27.8154 23.7159 26.2656 24.0997 24.9076C24.513 23.5497 25.2215 22.3246 26.2251 21.2324C27.2288 20.1401 28.6458 19.0774 30.4761 18.0442C32.0997 17.1881 33.4576 16.4649 34.5499 15.8744C35.6421 15.284 36.4687 14.7232 37.0295 14.1918C37.62 13.6309 37.9152 12.9815 37.9152 12.2435C37.9152 11.3579 37.5609 10.6051 36.8524 9.98517C36.1439 9.33572 35.1403 9.011 33.8414 9.011C32.4244 9.011 31.1993 9.35048 30.1661 10.0294C29.1624 10.7084 28.2916 11.4907 27.5536 12.3763L23.7897 8.03683C24.3211 7.47595 25.1181 6.87078 26.1809 6.22134C27.2436 5.57189 28.513 5.01101 29.989 4.53869C31.465 4.06636 33.0886 3.8302 34.8598 3.8302C37.8709 3.8302 40.203 4.53868 41.8561 5.95565C43.5388 7.34311 44.3801 9.14384 44.3801 11.3579C44.3801 12.7453 44.0554 13.9261 43.4059 14.9003C42.786 15.8449 42.0037 16.6567 41.0591 17.3357C40.1439 17.9851 39.2583 18.5608 38.4022 19.0626C36.5129 20.0073 35.0222 20.8338 33.9299 21.5423C32.8672 22.2508 32.0111 23.1364 31.3617 24.1992H44.8672V29.5571H23.524Z" fill="#02274F"/>
<path d="M60.2435 29.9999C58.4723 29.9999 56.893 29.6014 55.5055 28.8044C54.1181 28.0073 53.0258 26.9151 52.2288 25.5276V29.5571H47.048V0H52.9815V10.428C53.8081 9.04057 54.8856 7.94833 56.214 7.15128C57.5719 6.35423 59.1513 5.95571 60.952 5.95571C62.9594 5.95571 64.7158 6.51659 66.2214 7.63836C67.7564 8.73061 68.952 10.1919 69.8081 12.0221C70.6642 13.8524 71.0922 15.8597 71.0922 18.0442C71.0922 20.2878 70.6199 22.3099 69.6752 24.1106C68.7306 25.9114 67.4317 27.3431 65.7786 28.4058C64.1549 29.4686 62.3099 29.9999 60.2435 29.9999ZM58.6051 24.952C59.8745 24.952 60.9815 24.642 61.9262 24.0221C62.9003 23.4022 63.6531 22.5756 64.1845 21.5424C64.7453 20.4797 65.0258 19.3284 65.0258 18.0885C65.0258 16.8191 64.7601 15.6531 64.2287 14.5904C63.7269 13.4981 63.0184 12.6273 62.1033 11.9778C61.1882 11.3284 60.1402 11.0037 58.9594 11.0037C57.6605 11.0037 56.4649 11.4465 55.3727 12.3321C54.3099 13.1882 53.5129 14.2509 52.9815 15.5203V21.0553C53.3653 22.2066 54.1181 23.1512 55.2398 23.8892C56.3616 24.5977 57.4834 24.952 58.6051 24.952Z" fill="#02274F"/>
<path d="M73.3392 29.557V6.35413H79.2728V29.557H73.3392Z" fill="#FDCF00"/>
<path d="M97.9644 28.3615C97.1674 28.7158 96.1785 29.07 94.9977 29.4243C93.8464 29.7785 92.6508 29.9556 91.4109 29.9556C90.3187 29.9556 89.315 29.7638 88.3999 29.38C87.4848 28.9962 86.7468 28.3911 86.1859 27.5645C85.6545 26.7084 85.3888 25.6014 85.3888 24.2435V10.9151H81.6416V6.35422H85.3888V0H91.3224V6.35422H96.1932V10.9151H91.3224V22.2509C91.3224 23.0479 91.529 23.6236 91.9423 23.9778C92.3851 24.332 92.9165 24.5092 93.5364 24.5092C94.1563 24.5092 94.7615 24.4058 95.3519 24.1992C95.9423 23.9926 96.4146 23.8154 96.7689 23.6678L97.9644 28.3615Z" fill="#FDCF00"/>
</svg>
